# xmcd
# 
# Track frame offsets:
#   150
#   19559
#   36490
# 
# Disc length: 737 seconds
# 
# Revision: 1
# Processed by: cddbd v1.5.2PL0 Copyright (c) Steve Scherf et al.
# Submitted via: VOLTOCDX V1.0.24 
# 
DISCID=1c02df03
DTITLE=Vista - Guitar Vision
DYEAR=2006
DGENRE=blues
TTITLE0=Shaman
TTITLE1=Urban
TTITLE2=Vogue Lilas
EXTD=
EXTT0=
EXTT1=
EXTT2=
PLAYORDER=
